<mxfile host="app.diagrams.net" modified="2024-07-15T03:42:13.796Z" agent="Mozilla/5.0 (Macintosh; Intel Mac OS X 10_15_7) AppleWebKit/537.36 (KHTML, like Gecko) Chrome/126.0.0.0 Safari/537.36" etag="QbKHU60H_R9E4W0WpvLH" version="24.6.5" type="github">
  <diagram name="第 1 页" id="MXU2qNBRrs-UN5zH1q8o">
    <mxGraphModel dx="1434" dy="710" grid="1" gridSize="10" guides="1" tooltips="1" connect="1" arrows="1" fold="1" page="1" pageScale="1" pageWidth="827" pageHeight="1169" math="0" shadow="0">
      <root>
        <mxCell id="0" />
        <mxCell id="1" parent="0" />
        <mxCell id="L2-9VLVBLSWrTnXkbu2k-3" style="edgeStyle=orthogonalEdgeStyle;rounded=0;orthogonalLoop=1;jettySize=auto;html=1;" edge="1" parent="1" source="L2-9VLVBLSWrTnXkbu2k-1" target="L2-9VLVBLSWrTnXkbu2k-2">
          <mxGeometry relative="1" as="geometry" />
        </mxCell>
        <mxCell id="L2-9VLVBLSWrTnXkbu2k-1" value="" style="ellipse;whiteSpace=wrap;html=1;aspect=fixed;" vertex="1" parent="1">
          <mxGeometry x="190" y="140" width="80" height="80" as="geometry" />
        </mxCell>
        <mxCell id="L2-9VLVBLSWrTnXkbu2k-5" style="edgeStyle=orthogonalEdgeStyle;rounded=0;orthogonalLoop=1;jettySize=auto;html=1;" edge="1" parent="1" source="L2-9VLVBLSWrTnXkbu2k-2" target="L2-9VLVBLSWrTnXkbu2k-4">
          <mxGeometry relative="1" as="geometry" />
        </mxCell>
        <mxCell id="L2-9VLVBLSWrTnXkbu2k-2" value="用户请求&lt;div&gt;/lark/callback&lt;/div&gt;" style="rounded=0;whiteSpace=wrap;html=1;" vertex="1" parent="1">
          <mxGeometry x="170" y="250" width="120" height="60" as="geometry" />
        </mxCell>
        <mxCell id="L2-9VLVBLSWrTnXkbu2k-7" style="edgeStyle=orthogonalEdgeStyle;rounded=0;orthogonalLoop=1;jettySize=auto;html=1;" edge="1" parent="1" source="L2-9VLVBLSWrTnXkbu2k-4" target="L2-9VLVBLSWrTnXkbu2k-6">
          <mxGeometry relative="1" as="geometry" />
        </mxCell>
        <mxCell id="L2-9VLVBLSWrTnXkbu2k-4" value="构造流程链&lt;div&gt;&lt;div style=&quot;&quot;&gt;&lt;pre style=&quot;font-family: &amp;quot;JetBrains Mono&amp;quot;, monospace; font-size: 9.8pt;&quot;&gt;getLarkBotAtomicSarkerviceList&lt;/pre&gt;&lt;/div&gt;&lt;/div&gt;" style="rounded=0;whiteSpace=wrap;html=1;" vertex="1" parent="1">
          <mxGeometry x="170" y="340" width="120" height="60" as="geometry" />
        </mxCell>
        <mxCell id="L2-9VLVBLSWrTnXkbu2k-6" value="" style="rounded=0;whiteSpace=wrap;html=1;" vertex="1" parent="1">
          <mxGeometry x="170" y="430" width="120" height="60" as="geometry" />
        </mxCell>
      </root>
    </mxGraphModel>
  </diagram>
</mxfile>
